<?xml version="1.0" encoding="UTF-8" ?>
<!DOCTYPE svg PUBLIC "-//W3C//DTD SVG 1.1//EN" "http://www.w3.org/Graphics/SVG/1.1/DTD/svg11.dtd">
<svg width="636pt" height="662pt" viewBox="0 0 636 662" version="1.1" xmlns="http://www.w3.org/2000/svg">
<g id="#272729ff">
</g>
<g id="#9e3c37ff">
<path fill="#9e3c37" opacity="1.00" d=" M 165.34 132.29 C 268.85 131.65 372.40 132.10 475.92 132.07 C 479.36 134.48 482.78 137.50 484.72 141.32 C 486.00 243.51 483.87 345.80 484.93 447.92 C 481.80 452.57 478.00 459.94 471.03 458.03 C 413.74 456.98 355.99 458.99 298.95 457.02 C 256.24 459.19 212.12 457.40 168.97 458.05 C 162.92 458.38 159.17 451.71 157.09 446.91 C 157.34 345.61 156.80 244.32 157.02 142.98 C 157.46 138.10 161.93 135.18 165.34 132.29 M 300.33 156.26 C 296.32 157.93 293.86 162.13 290.07 163.82 C 283.92 159.82 273.58 158.07 268.92 164.92 C 265.55 173.96 254.07 171.58 248.56 178.50 C 244.11 180.83 243.52 186.12 242.56 190.48 C 235.53 193.20 228.49 198.69 227.48 206.62 C 226.19 213.12 218.13 207.36 214.01 211.02 C 209.28 214.65 207.67 205.93 202.94 206.95 C 202.85 210.21 205.39 212.70 206.01 215.79 C 200.13 216.46 199.04 225.88 192.92 223.14 C 193.23 225.16 197.13 228.31 192.98 228.93 C 186.14 230.92 184.10 237.96 183.47 244.22 C 183.43 248.23 177.51 246.83 176.99 250.97 C 170.97 256.97 178.34 265.59 175.97 271.98 C 167.52 280.23 171.06 295.83 181.90 300.28 C 181.21 305.76 179.05 311.12 181.56 316.60 C 182.89 319.59 179.04 321.68 180.13 324.72 C 182.75 325.94 188.20 326.67 186.76 330.72 C 186.07 334.00 180.48 333.41 181.02 336.99 C 181.91 340.99 184.69 344.89 183.29 349.13 C 181.84 355.97 191.98 358.68 189.13 365.98 C 188.01 373.73 195.65 378.10 201.68 380.31 C 201.56 391.61 211.91 399.75 222.77 398.24 C 226.93 410.75 242.72 413.32 253.08 407.10 C 257.00 410.16 260.53 414.25 266.09 413.83 C 279.82 408.27 282.71 430.70 296.68 427.34 C 301.75 435.20 311.55 433.98 319.55 433.40 C 326.35 440.22 336.80 436.85 343.08 431.05 C 353.27 435.61 366.38 431.86 369.17 420.15 C 382.46 423.78 391.74 412.32 394.52 401.00 C 392.97 393.50 405.56 396.65 407.00 390.01 C 408.72 383.19 418.38 392.76 416.47 382.36 C 420.16 373.48 432.71 378.10 436.48 369.62 C 436.88 363.84 444.44 364.39 447.31 360.32 C 450.66 358.18 449.29 352.77 453.08 351.09 C 461.27 347.49 460.04 337.36 458.24 330.31 C 466.09 327.78 469.56 319.44 465.96 312.00 C 462.72 307.38 466.17 301.93 466.92 296.99 C 466.42 288.58 460.16 282.71 453.23 278.91 C 457.06 271.78 454.10 261.82 447.43 257.56 C 444.88 252.84 449.27 248.89 450.97 244.91 C 451.14 239.37 443.87 236.03 446.76 229.91 C 451.08 222.77 440.16 222.58 440.42 217.34 C 443.74 207.77 433.32 203.91 426.28 201.75 C 427.28 190.08 413.71 185.50 404.22 187.80 C 400.00 175.27 385.46 174.95 374.80 178.38 C 369.24 175.94 363.50 172.59 357.00 173.87 C 347.59 174.67 343.89 162.35 334.27 162.70 C 334.45 160.24 333.97 158.01 332.83 156.00 C 329.79 155.46 330.13 160.79 327.01 159.93 C 322.01 158.88 317.01 157.66 312.15 156.11 C 308.92 160.30 304.76 152.45 300.33 156.26 Z" />
<path fill="#9e3c37" opacity="1.00" d=" M 307.41 178.63 C 313.28 177.97 319.16 178.90 325.04 179.13 C 325.54 187.58 314.46 190.47 316.70 199.67 C 308.61 201.36 297.00 205.66 301.51 216.59 C 306.80 223.00 294.34 221.99 293.97 227.95 C 288.96 233.00 297.48 238.59 293.16 243.08 C 289.09 247.51 291.29 253.20 294.90 256.90 C 292.25 259.61 291.18 263.29 290.26 266.86 C 292.77 268.84 295.63 270.29 298.58 271.50 C 296.99 276.76 300.90 278.56 304.12 280.98 C 301.94 288.31 294.95 285.00 292.79 279.30 C 283.99 281.78 281.08 270.71 272.80 271.14 C 270.48 265.89 267.77 260.45 261.18 259.64 C 262.64 253.73 260.06 248.27 255.26 244.65 C 255.32 240.57 256.07 232.90 261.92 233.74 C 261.30 228.82 261.94 223.73 260.01 219.07 C 263.89 215.25 266.42 209.76 265.30 204.22 C 268.26 202.19 271.40 200.42 274.37 198.40 C 279.38 195.99 276.74 185.77 284.84 187.63 C 289.54 187.02 292.63 183.35 294.45 179.31 C 298.75 178.97 303.10 179.03 307.41 178.63 Z" />
<path fill="#9e3c37" opacity="1.00" d=" M 371.33 201.36 C 377.52 201.43 383.69 207.13 390.68 204.57 C 395.67 202.29 396.03 209.06 398.36 211.65 C 401.98 216.09 410.31 210.99 412.01 217.00 C 414.05 224.36 427.74 222.95 423.42 232.63 C 425.41 236.03 430.18 239.29 425.81 242.95 C 421.37 242.84 417.88 238.83 413.12 239.65 C 409.52 237.70 406.05 242.70 402.77 240.20 C 395.76 232.22 383.73 234.47 375.73 239.42 C 368.17 236.14 359.99 238.63 354.61 244.56 C 348.65 244.78 340.04 244.87 337.58 251.65 C 336.34 257.21 328.78 255.65 327.09 261.05 C 324.65 265.31 319.66 267.46 317.97 272.26 C 314.80 270.88 315.03 267.95 315.71 265.08 C 313.65 257.87 314.27 250.48 315.12 243.13 C 319.12 239.48 321.47 233.52 320.22 228.16 C 329.27 228.71 331.19 220.70 332.76 213.77 C 341.22 212.98 348.53 208.87 356.28 205.33 C 361.67 206.57 366.81 204.15 371.33 201.36 Z" />
<path fill="#9e3c37" opacity="1.00" d=" M 221.20 226.15 C 228.71 223.94 222.03 234.41 224.79 238.12 C 224.73 243.84 235.08 243.84 232.49 249.58 C 228.20 256.77 232.65 267.95 241.34 268.62 C 248.27 269.44 241.51 280.41 248.96 281.99 C 251.86 285.11 256.08 283.52 259.74 284.22 C 262.90 294.87 277.20 294.22 285.86 298.32 C 291.49 300.30 297.46 295.92 302.92 298.17 C 302.43 306.65 292.00 308.55 287.76 314.75 C 285.48 317.84 281.44 313.67 278.63 315.60 C 274.90 317.94 272.65 323.38 266.97 320.11 C 262.63 319.38 258.90 324.53 254.69 322.31 C 249.19 318.02 242.58 319.13 236.40 320.72 C 233.83 311.11 222.73 311.99 217.44 305.70 C 217.46 298.16 211.34 292.52 204.16 291.59 C 205.79 286.38 202.96 277.19 210.01 275.59 C 207.55 273.14 203.17 273.97 201.14 270.76 C 202.49 264.33 202.81 257.81 203.25 251.29 C 209.35 248.47 209.42 240.88 213.21 236.19 C 217.44 234.21 218.43 229.44 221.20 226.15 Z" />
<path fill="#9e3c37" opacity="1.00" d=" M 375.41 260.49 C 380.72 260.06 386.23 262.64 391.77 262.63 C 396.65 264.42 389.54 270.54 394.18 272.91 C 397.09 272.04 398.06 268.95 399.94 266.89 C 403.12 271.09 409.51 268.12 412.12 272.87 C 418.26 276.66 419.91 285.48 427.66 287.37 C 433.79 287.91 429.81 295.85 432.07 299.93 C 432.64 304.32 440.39 307.20 436.57 311.60 C 433.86 315.93 434.57 321.81 436.45 326.41 C 439.42 332.43 430.40 334.14 431.93 340.03 C 431.27 345.71 422.19 345.90 423.57 352.67 C 421.00 355.37 416.26 361.96 413.15 356.73 C 414.31 349.16 415.43 338.53 406.11 335.79 C 409.91 325.56 402.62 315.94 393.18 312.80 C 395.73 302.63 387.24 295.09 377.23 296.77 C 374.97 292.62 372.08 287.78 366.77 287.69 C 360.86 288.49 357.10 281.69 350.99 283.04 C 345.93 283.05 341.29 280.84 336.19 281.43 C 331.67 279.52 336.40 274.32 339.35 273.43 C 342.93 272.73 345.43 270.28 347.34 267.31 C 352.84 268.12 357.50 265.78 362.11 263.23 C 366.70 263.35 371.48 263.11 375.41 260.49 Z" />
<path fill="#9e3c37" opacity="1.00" d=" M 342.20 297.41 C 344.54 297.72 346.35 300.31 348.47 301.54 C 346.34 309.95 352.61 303.27 355.17 305.87 C 359.07 310.01 368.62 306.99 367.53 315.61 C 368.15 321.62 378.69 320.74 375.95 328.02 C 374.63 334.85 385.77 338.80 380.35 345.32 C 377.78 350.41 378.25 357.58 383.20 361.04 C 374.44 366.40 371.61 375.88 372.77 385.72 C 364.83 387.84 358.84 393.89 356.83 401.85 C 348.87 400.05 343.05 405.83 337.04 409.83 C 332.68 406.87 328.08 411.66 323.30 409.27 C 320.82 416.67 314.44 408.26 309.35 410.49 C 302.60 412.61 299.01 404.00 292.08 405.83 C 289.90 405.95 287.06 400.79 290.97 402.13 C 302.45 406.14 315.37 397.44 315.23 385.21 C 324.71 382.34 334.62 375.48 333.10 364.13 C 340.49 361.51 344.63 350.39 341.33 342.30 C 346.86 338.18 346.20 329.83 342.40 324.64 C 341.79 319.79 343.58 313.39 338.30 310.69 C 333.13 307.01 336.71 298.71 342.20 297.41 Z" />
<path fill="#9e3c37" opacity="1.00" d=" M 317.29 309.04 C 319.77 308.70 322.12 313.09 319.55 314.55 C 317.83 318.62 323.91 323.62 320.59 327.59 C 318.12 330.67 318.54 335.09 320.87 338.07 C 319.74 341.83 312.54 342.43 315.08 348.02 C 317.23 355.10 308.48 355.51 305.16 359.15 C 302.76 362.22 302.46 366.32 300.73 369.74 C 293.23 368.67 286.81 372.85 281.12 377.13 C 276.07 383.01 267.24 376.50 261.19 381.21 C 255.01 384.09 261.21 372.27 256.12 373.08 C 255.12 375.95 255.64 379.28 253.96 381.88 C 248.77 378.65 243.03 377.69 237.01 377.87 C 237.23 375.87 237.79 373.92 238.00 371.91 C 234.75 372.00 231.44 376.30 229.55 371.40 C 226.86 366.16 218.29 368.25 216.83 362.11 C 215.70 358.24 212.27 356.12 209.31 353.72 C 209.94 350.93 209.88 348.16 208.56 345.58 C 204.87 340.73 211.20 338.39 213.81 341.19 C 218.69 345.26 224.58 340.49 229.70 340.18 C 234.06 348.89 246.52 350.95 254.05 345.08 C 257.35 342.08 260.87 347.66 264.63 345.55 C 271.15 346.80 275.78 342.36 280.24 338.52 C 286.88 339.60 296.00 338.17 297.32 330.30 C 301.15 327.53 306.25 326.11 308.14 321.23 C 307.37 314.31 318.55 316.82 317.29 309.04 Z" />
<path fill="#9e3c37" opacity="1.00" d=" M 261.11 480.03 C 263.53 481.36 270.33 477.62 270.64 482.36 C 271.25 499.79 271.20 517.32 270.77 534.75 C 263.30 541.55 249.94 539.68 241.21 535.77 C 233.23 527.45 233.77 514.32 237.02 504.03 C 240.22 496.35 249.12 493.83 256.66 494.45 C 264.49 496.81 259.85 484.72 261.11 480.03 M 249.29 502.19 C 242.77 506.58 245.42 515.39 245.01 522.00 C 243.07 530.63 255.18 534.77 260.83 530.76 C 261.39 521.62 260.99 512.42 260.84 503.28 C 258.40 499.74 252.69 503.10 249.29 502.19 Z" />
<path fill="#9e3c37" opacity="1.00" d=" M 172.39 494.45 C 176.52 494.30 187.03 492.94 183.93 500.75 C 180.01 504.61 171.36 498.53 169.00 505.00 C 164.80 513.22 163.69 533.57 177.99 531.83 C 181.40 530.82 186.57 530.57 183.97 536.83 C 174.80 542.34 159.18 537.79 157.95 526.04 C 154.61 514.25 157.56 495.70 172.39 494.45 Z" />
<path fill="#9e3c37" opacity="1.00" d=" M 206.36 494.41 C 214.95 493.04 225.15 497.46 226.05 506.96 C 228.27 517.21 228.27 532.97 216.89 537.84 C 207.89 540.98 194.13 538.98 191.85 528.11 C 187.45 516.01 189.53 494.26 206.36 494.41 M 204.33 502.28 C 199.64 503.51 200.40 509.49 199.14 513.10 C 198.74 520.90 199.80 535.55 211.67 531.74 C 221.41 527.61 216.94 514.46 216.60 506.35 C 215.45 500.55 208.78 501.73 204.33 502.28 Z" />
<path fill="#9e3c37" opacity="1.00" d=" M 296.38 494.50 C 310.54 491.34 318.39 506.82 314.86 518.82 C 306.96 521.97 297.48 518.11 289.71 520.67 C 288.23 527.83 296.95 534.19 303.99 531.97 C 307.99 530.90 316.60 526.97 313.94 535.81 C 308.71 539.65 301.35 538.93 295.30 538.66 C 273.56 536.05 274.40 495.99 296.38 494.50 M 294.29 502.20 C 291.17 504.75 288.63 508.61 289.97 512.95 C 295.33 512.11 302.26 514.84 306.94 511.78 C 307.57 504.72 301.42 499.23 294.29 502.20 Z" />
<path fill="#9e3c37" opacity="1.00" d=" M 403.40 494.54 C 410.73 493.11 421.60 495.51 422.58 504.37 C 422.74 514.83 424.18 526.20 422.31 536.31 C 413.73 540.31 400.28 541.17 392.29 534.72 C 389.24 527.74 389.23 515.53 399.12 514.21 C 404.02 512.42 417.35 514.98 413.40 505.64 C 410.06 498.28 399.20 504.82 394.09 500.78 C 392.47 494.95 399.21 494.51 403.40 494.54 M 402.25 520.14 C 393.60 526.93 404.75 537.76 413.33 531.33 C 413.47 528.81 413.75 523.78 413.88 521.27 C 411.33 517.80 405.70 521.07 402.25 520.14 Z" />
<path fill="#9e3c37" opacity="1.00" d=" M 446.41 494.56 C 449.35 493.44 458.12 494.44 456.47 499.34 C 455.82 505.73 446.32 499.05 443.13 503.25 C 442.71 513.83 443.20 524.42 443.00 535.01 C 443.50 539.54 436.25 539.20 434.14 536.75 C 433.84 523.56 433.92 510.37 434.09 497.20 C 437.63 494.86 442.34 495.43 446.41 494.56 Z" />
<path fill="#9e3c37" opacity="1.00" d=" M 471.37 494.41 C 475.40 494.71 484.29 492.42 483.94 498.92 C 482.53 506.80 469.50 497.50 467.02 505.07 C 470.32 514.80 487.68 516.79 484.61 529.68 C 482.77 540.46 469.25 540.36 460.87 538.23 C 456.92 537.78 457.90 531.62 461.02 531.15 C 465.92 531.27 474.40 534.54 475.98 527.93 C 474.12 517.85 457.31 516.74 458.96 504.98 C 458.01 498.12 465.45 494.23 471.37 494.41 Z" />
<path fill="#9e3c37" opacity="1.00" d=" M 323.38 495.36 C 326.32 493.75 329.26 494.78 330.66 497.32 C 332.70 507.89 335.35 518.34 337.19 528.94 C 337.61 528.93 338.45 528.92 338.87 528.91 C 341.80 518.15 343.04 506.93 346.26 496.27 C 350.34 494.54 357.85 492.85 360.02 497.97 C 362.93 507.97 363.42 520.08 368.01 528.92 C 370.79 519.84 373.24 507.43 375.96 496.99 C 377.28 492.15 388.88 494.58 384.48 500.61 C 381.19 512.48 378.20 524.62 374.19 536.24 C 371.12 539.56 360.69 540.29 359.95 534.02 C 357.98 524.69 355.67 515.46 353.81 506.12 C 353.41 506.12 352.62 506.12 352.22 506.12 C 349.88 516.36 347.43 526.57 344.64 536.70 C 341.02 539.17 336.16 537.51 332.14 537.96 C 326.96 526.12 325.57 512.87 321.52 500.61 C 319.94 497.45 320.56 495.70 323.38 495.36 Z" />
</g>
</svg>
